<?xml version="1.0" standalone="no"?>
<!DOCTYPE svg PUBLIC "-//W3C//DTD SVG 20010904//EN"
 "http://www.w3.org/TR/2001/REC-SVG-20010904/DTD/svg10.dtd">
<svg version="1.0" xmlns="http://www.w3.org/2000/svg"
 width="28.000000pt" height="28.000000pt" viewBox="0 0 28.000000 28.000000"
 preserveAspectRatio="xMidYMid meet">
<metadata>
Created by potrace 1.16, written by Peter Selinger 2001-2019
</metadata>
<g transform="translate(0.000000,28.000000) scale(0.100000,-0.100000)"
fill="#000000" stroke="none">
<path d="M54 226 c-30 -30 -34 -40 -34 -86 0 -75 45 -120 120 -120 75 0 120
45 120 120 0 46 -4 56 -34 86 -30 30 -40 34 -86 34 -46 0 -56 -4 -86 -34z
m143 -12 c28 -18 48 -76 34 -103 -22 -40 -141 -17 -141 27 0 21 29 52 48 52
22 0 52 -30 52 -52 0 -10 5 -18 10 -18 6 0 10 9 10 20 0 27 -43 70 -70 70 -27
0 -70 -43 -70 -70 0 -29 44 -70 75 -70 27 0 34 -17 11 -26 -28 -11 -86 24
-101 61 -14 31 -14 39 -1 70 25 59 86 75 143 39z"/>
</g>
</svg>
