<svg width="17" height="14" viewBox="0 0 17 14" fill="none" xmlns="http://www.w3.org/2000/svg">
<path d="M9.47291 0.78672C9.36444 0.891537 9.27839 1.01601 9.21968 1.15302C9.16097 1.29003 9.13076 1.43689 9.13076 1.5852C9.13076 1.73352 9.16097 1.88038 9.21968 2.01739C9.27839 2.1544 9.36444 2.27887 9.47291 2.38369L13.3134 6.10016L1.16658 6.10806C0.857176 6.10806 0.56044 6.22696 0.341657 6.43861C0.122873 6.65027 -3.8147e-05 6.93733 -3.8147e-05 7.23665C-3.8147e-05 7.53598 0.122873 7.82304 0.341657 8.03469C0.56044 8.24635 0.857176 8.36525 1.16658 8.36525L13.3158 8.35735L9.47291 12.0727C9.254 12.2843 9.13096 12.5714 9.13085 12.8708C9.13074 13.1702 9.25358 13.4573 9.47233 13.6691C9.69108 13.8809 9.98783 13.9999 10.2973 14C10.6068 14.0001 10.9036 13.8813 11.1225 13.6697L15.306 9.62251C15.6311 9.3081 15.8889 8.93483 16.0648 8.52401C16.2408 8.11319 16.3313 7.67287 16.3313 7.22819C16.3313 6.78351 16.2408 6.34319 16.0648 5.93237C15.8889 5.52155 15.6311 5.14828 15.306 4.83387L11.1225 0.78672C10.9037 0.575141 10.6071 0.456284 10.2977 0.456284C9.98836 0.456284 9.69168 0.575141 9.47291 0.78672Z" fill="#081F32"/>
</svg>
